<svg width="107" height="19" viewBox="0 0 107 19" fill="none" xmlns="http://www.w3.org/2000/svg">
<path fill-rule="evenodd" clip-rule="evenodd" d="M22.3946 1.55219C22.293 1.5861 21.9007 1.73401 21.7887 1.78067C21.7561 1.79429 21.5583 1.87153 21.3492 1.95237C21.1401 2.0332 20.9476 2.10804 20.9215 2.11869C20.8953 2.12933 20.7029 2.20418 20.4938 2.28501C20.2847 2.36584 20.0922 2.44069 20.0661 2.45133C20.04 2.462 19.8208 2.54754 19.579 2.64141C19.3373 2.73529 19.1181 2.82083 19.0919 2.8315C19.0658 2.84214 18.8733 2.91699 18.6642 2.99782C18.4552 3.07865 18.2627 3.15304 18.2366 3.16317C18.2104 3.17326 18.1623 3.19268 18.1296 3.20629C18.097 3.21991 17.8992 3.29715 17.6901 3.37798C17.481 3.45882 17.2885 3.53366 17.2624 3.54431C17.2363 3.55495 17.0438 3.6298 16.8347 3.71063C16.6256 3.79146 16.4332 3.86631 16.407 3.87695C16.3809 3.88762 16.1617 3.97316 15.9199 4.06703C15.6782 4.16091 15.459 4.24645 15.4328 4.25711C15.4067 4.26776 15.2143 4.3426 15.0052 4.42344C14.7961 4.50427 14.5983 4.58151 14.5656 4.59513C14.5329 4.60874 14.4848 4.62815 14.4587 4.63825C14.4325 4.64837 14.2401 4.72277 14.031 4.8036C13.8219 4.88443 13.6294 4.95928 13.6033 4.96992C13.5772 4.98057 13.3847 5.05541 13.1756 5.13625C12.9665 5.21708 12.7741 5.29192 12.7479 5.30257C12.7218 5.31324 12.5026 5.39877 12.2608 5.49265C12.0191 5.58653 11.7999 5.67206 11.7738 5.68273C11.7476 5.69338 11.5552 5.76822 11.3461 5.84905C11.137 5.92989 10.9419 6.00571 10.9124 6.01756C10.883 6.02944 10.8349 6.04883 10.8055 6.06071C10.7761 6.07257 10.581 6.14839 10.3719 6.22922C10.1628 6.31005 9.97035 6.3849 9.94422 6.39554C9.91808 6.40619 9.72562 6.48103 9.51653 6.56186C9.30744 6.64269 9.11498 6.71754 9.08885 6.72818C9.06271 6.73885 8.84352 6.82439 8.60176 6.91827C8.36 7.01214 8.14081 7.09768 8.11467 7.10835C8.08854 7.11902 7.86935 7.20455 7.62759 7.29843C7.38583 7.39231 7.16664 7.47785 7.1405 7.48851C7.11436 7.49916 6.92191 7.574 6.71282 7.65484C6.50372 7.73567 6.31127 7.81042 6.28513 7.82094C6.25899 7.83149 6.20019 7.85383 6.15445 7.87056C5.52485 8.10101 5.59183 9.08045 6.23721 9.08045C6.25579 9.08045 6.29558 9.09017 6.32559 9.10203C6.3556 9.11388 6.46036 9.14675 6.55837 9.17502C6.65638 9.20329 6.80607 9.24713 6.89102 9.27244C6.97596 9.29774 7.08288 9.32896 7.12862 9.34182C7.23697 9.37225 7.52791 9.45898 7.60383 9.48348C7.6365 9.494 7.706 9.51446 7.75827 9.52895C7.86897 9.5596 8.15927 9.64578 8.24535 9.67356C8.27803 9.68408 8.34752 9.70454 8.3998 9.71904C8.45207 9.73351 8.567 9.76682 8.65522 9.79307C8.74344 9.8193 8.88776 9.86226 8.97598 9.88849C9.06421 9.91475 9.17913 9.94806 9.23141 9.96253C9.28368 9.97702 9.35318 9.99758 9.38585 10.0082C9.41852 10.0189 9.52544 10.0508 9.62345 10.0792C9.72146 10.1076 9.82838 10.1393 9.86106 10.1497C9.89373 10.1601 9.98461 10.1872 10.063 10.2099C10.2494 10.264 10.2498 10.2643 10.3113 10.4647C10.3404 10.5593 10.3831 10.6956 10.4063 10.7674C10.4295 10.8393 10.4836 11.0104 10.5265 11.1476C10.5695 11.2848 10.6336 11.488 10.6689 11.599C10.7043 11.7101 10.7683 11.9133 10.8113 12.0505C10.8542 12.1877 10.9083 12.3588 10.9314 12.4307C10.9545 12.5025 11.0181 12.7057 11.0728 12.8821C11.1275 13.0585 11.1917 13.2617 11.2154 13.3335C11.2391 13.4054 11.3033 13.6086 11.358 13.785C11.4127 13.9614 11.4767 14.1646 11.5004 14.2364C11.524 14.3083 11.5778 14.4794 11.6199 14.6166C11.8043 15.2174 11.8438 15.3094 11.9758 15.4455C12.169 15.6445 12.5192 15.7068 12.7739 15.5874C12.887 15.5343 13.4477 14.9826 14.7324 13.6602C15.1587 13.2214 15.0904 13.2411 15.3991 13.4684C15.6567 13.6582 15.8669 13.8126 16.1694 14.0345C16.5774 14.3336 16.7062 14.4283 16.9799 14.6301C17.1382 14.7468 17.4359 14.9653 17.6415 15.1156C17.847 15.2659 18.1666 15.5002 18.3516 15.6365C18.5366 15.7727 18.7682 15.943 18.8662 16.015C18.9642 16.087 19.1033 16.19 19.1753 16.244C19.8573 16.7548 20.5768 16.475 20.7327 15.6383C20.7412 15.5926 20.7578 15.5124 20.7695 15.4601C20.7813 15.4078 20.8014 15.3116 20.8143 15.2463C20.8272 15.1809 20.8593 15.0259 20.8858 14.9017C20.9123 14.7776 20.9445 14.6225 20.9574 14.5572C20.9702 14.4919 20.9915 14.3903 21.0046 14.3315C21.0178 14.2727 21.0392 14.1711 21.0522 14.1058C21.0652 14.0404 21.0865 13.9388 21.0997 13.88C21.1128 13.8212 21.1341 13.7197 21.1469 13.6543C21.1598 13.589 21.1908 13.4393 21.2158 13.3217C21.314 12.8596 21.3674 12.6048 21.385 12.5138C21.3951 12.4615 21.4164 12.36 21.4323 12.2881C21.4483 12.2162 21.4696 12.1146 21.4797 12.0624C21.4973 11.9714 21.5507 11.7165 21.6488 11.2545C21.6739 11.1369 21.7048 10.9872 21.7177 10.9219C21.7306 10.8565 21.7518 10.755 21.765 10.6962C21.7781 10.6373 21.7995 10.5358 21.8125 10.4704C21.8255 10.4051 21.8469 10.3035 21.8601 10.2447C21.8733 10.1859 21.8935 10.0897 21.905 10.0309C21.9255 9.92618 21.9857 9.63834 22.0765 9.21113C22.1016 9.09352 22.1325 8.94383 22.1454 8.87849C22.1582 8.81315 22.1795 8.71158 22.1927 8.65277C22.2058 8.59396 22.2271 8.49239 22.2399 8.42705C22.2528 8.3617 22.2837 8.21201 22.3088 8.0944C22.4069 7.63238 22.4603 7.37751 22.4779 7.28655C22.4881 7.23428 22.5094 7.1327 22.5253 7.06083C22.5412 6.98895 22.5625 6.88738 22.5727 6.83511C22.5903 6.74415 22.6436 6.48927 22.7418 6.02726C22.7668 5.90964 22.7978 5.75995 22.8107 5.69461C22.8235 5.62927 22.8448 5.5277 22.8579 5.46889C22.8711 5.41008 22.8925 5.30851 22.9055 5.24317C22.9185 5.17783 22.9399 5.07625 22.9531 5.01744C22.9662 4.95864 22.9865 4.86241 22.998 4.8036C23.0185 4.69891 23.0787 4.41108 23.1695 3.98387C23.1945 3.86626 23.2255 3.71657 23.2384 3.65123C23.2512 3.58589 23.2725 3.48431 23.2856 3.4255C23.2988 3.3667 23.32 3.26512 23.3329 3.19978C23.3458 3.13444 23.3789 2.9794 23.4066 2.85526C23.6108 1.93994 23.1214 1.30982 22.3946 1.55219ZM20.2881 4.22972C20.4525 4.35617 20.4034 4.42372 19.6978 5.04192C19.4822 5.23081 19.3004 5.39096 19.2939 5.39777C19.2874 5.40457 19.1911 5.49018 19.0801 5.58802C18.969 5.68584 18.8727 5.77155 18.8662 5.77844C18.8597 5.78533 18.6779 5.94564 18.4623 6.13468C18.2467 6.32369 18.0649 6.48393 18.0584 6.49075C18.0518 6.49754 17.9556 6.58315 17.8445 6.681C17.7334 6.77882 17.6372 6.86452 17.6307 6.87141C17.6241 6.8783 17.4424 7.03861 17.2267 7.22765C17.0111 7.41666 16.8294 7.5769 16.8228 7.58372C16.8163 7.59052 16.7201 7.67613 16.609 7.77397C16.4979 7.87179 16.4017 7.95749 16.3951 7.96439C16.3886 7.97128 16.2068 8.13159 15.9912 8.32062C15.7756 8.50964 15.5938 8.66988 15.5873 8.67669C15.5808 8.68349 15.4845 8.7691 15.3734 8.86694C15.2624 8.96477 15.1661 9.05047 15.1596 9.05736C15.1531 9.06425 14.9713 9.22456 14.7557 9.4136C14.5401 9.60261 14.3583 9.76285 14.3518 9.76967C14.3452 9.77646 14.249 9.86207 14.1379 9.95992C14.0268 10.0577 13.9306 10.1434 13.9241 10.1503C13.9175 10.1572 13.7358 10.3175 13.5201 10.5066C13.3045 10.6956 13.1228 10.8557 13.1162 10.8624C13.1097 10.8691 13.0118 10.9578 12.8986 11.0596C12.6776 11.2583 12.5935 11.3916 12.5935 11.5434C12.5935 11.5915 12.5835 11.6958 12.5714 11.7753C12.5592 11.8548 12.5372 12.0321 12.5225 12.1693C12.5078 12.3065 12.4863 12.499 12.4747 12.597C12.4631 12.695 12.4417 12.8874 12.4272 13.0247C12.3509 13.7446 12.3044 14.0676 12.2733 14.0934C12.2247 14.1337 12.1772 14.068 12.1192 13.88C12.0889 13.782 12.0456 13.643 12.0229 13.5711C11.9792 13.4329 11.8691 13.0765 11.7843 12.7989C11.7564 12.7075 11.7147 12.5738 11.6916 12.5019C11.6685 12.4301 11.6253 12.2911 11.5956 12.1931C11.5658 12.095 11.5224 11.956 11.4992 11.8842C11.476 11.8123 11.4231 11.6412 11.3817 11.504C11.3403 11.3668 11.2875 11.1957 11.2642 11.1238C11.241 11.052 11.1992 10.9183 11.1712 10.8268C11.1434 10.7354 11.0884 10.5602 11.0491 10.4376C10.8804 9.91031 10.8789 9.91233 11.9044 9.27816C12.416 8.96187 12.5549 8.87571 12.7598 8.74781C12.8578 8.68663 13.0129 8.59049 13.1043 8.53418C13.1958 8.47785 13.3427 8.38525 13.4308 8.32842C13.5188 8.27158 13.5965 8.22508 13.6033 8.22508C13.6101 8.22508 13.6878 8.17863 13.7759 8.12184C13.9473 8.01134 14.2203 7.84012 14.4706 7.68625C14.7699 7.5022 14.9595 7.38473 15.1358 7.27405C15.2339 7.21254 15.4744 7.06309 15.6704 6.94196C16.2187 6.60313 16.3219 6.5392 16.5139 6.4193C16.612 6.35812 16.767 6.26198 16.8585 6.20567C16.9499 6.14934 17.0968 6.05674 17.1849 5.99991C17.2729 5.94307 17.3506 5.89657 17.3574 5.89657C17.3643 5.89657 17.4419 5.85012 17.53 5.79334C17.7014 5.68283 17.9744 5.51161 18.2247 5.35774C18.524 5.17369 18.7136 5.05622 18.89 4.94554C18.988 4.88403 19.2286 4.73448 19.4246 4.61319C19.6206 4.49189 19.855 4.34612 19.9456 4.28924C20.1242 4.17699 20.202 4.16348 20.2881 4.22972Z" fill="white"/>
<path fill-rule="evenodd" clip-rule="evenodd" d="M44.1407 1.52367C43.1451 1.61247 42.5751 1.84205 42.2934 2.26771C42.1606 2.46834 42.1828 2.51521 42.4398 2.57691C43.2881 2.7806 43.5993 3.16704 43.771 4.23016C43.8387 4.64919 43.8407 7.09665 43.7736 7.48575C43.5949 8.52358 43.4109 8.83784 42.9857 8.83141C42.4602 8.82348 41.6408 7.8734 40.5905 6.05408C40.5531 5.98936 40.4322 5.78084 40.3218 5.59076C40.1443 5.28525 39.5263 4.05197 39.3648 3.68103C39.3319 3.60552 39.259 3.44172 39.2027 3.31703C39.1465 3.19238 39.1004 3.08094 39.1004 3.06941C39.1004 2.82928 38.7271 2.38699 38.4031 2.2432L38.1961 2.15129L36.2065 2.15271C33.6312 2.15451 33.4567 2.19079 33.4534 2.72506C33.4521 2.94413 33.4653 2.98214 33.806 3.73986C34.2261 4.67402 35.019 6.26291 35.5431 7.22099C35.6228 7.36663 35.7531 7.60487 35.8327 7.75051C35.9124 7.89611 36.0647 8.16531 36.1712 8.34868C36.2777 8.53205 36.3998 8.74386 36.4424 8.81937C36.4851 8.89487 36.5339 8.9743 36.5509 8.99587C36.5679 9.01745 36.6167 9.09688 36.6595 9.17238C36.8984 9.59427 37.8631 11.0711 38.12 11.4081C38.1775 11.4837 38.3496 11.7131 38.5025 11.9181C40.1519 14.1297 42.0661 15.5647 44.1015 16.1156C44.5474 16.2363 44.6813 16.268 44.9252 16.3105C45.0762 16.3368 45.2845 16.3743 45.388 16.3936C45.6837 16.4489 48.0295 16.4384 48.1976 16.381C48.6001 16.2436 48.828 15.948 48.828 15.5632C48.828 14.5704 49.0993 13.5884 49.4724 13.2309C50.0328 12.6939 50.5627 12.9907 51.9621 14.6253C52.9272 15.7524 53.5798 16.2291 54.4856 16.4682C54.8123 16.5544 58.7548 16.4493 59.0695 16.3459C60.5113 15.8727 59.837 14.5653 56.5664 11.493C55.3222 10.3243 55.2372 10.0177 55.881 9.02349C55.9969 8.84451 56.2012 8.55327 56.335 8.37629C56.5822 8.04932 57.1455 7.31838 57.233 7.21118C57.2741 7.16082 57.7423 6.53571 57.9675 6.23059C59.3387 4.37255 59.996 3.01563 59.7526 2.54506C59.5458 2.14514 59.4738 2.13647 56.6139 2.16722C53.6488 2.19911 53.7785 2.16993 53.4995 2.86713C53.4801 2.91569 53.4271 3.03905 53.3819 3.14127C53.3366 3.24352 53.2995 3.33566 53.2995 3.34602C53.2995 3.35641 53.2573 3.45812 53.2058 3.57199C53.1543 3.68589 53.0735 3.86734 53.0262 3.97521C52.8595 4.35509 52.4172 5.23418 52.2269 5.56378C52.1209 5.74715 52.0022 5.95335 51.963 6.02203C51.8915 6.14727 51.7842 6.31715 51.3856 6.93662C50.0674 8.98485 49.1579 9.3441 48.8683 7.93094C48.8191 7.69042 48.8322 5.1371 48.8906 3.60258C48.9265 2.66019 48.8199 2.21048 48.4922 1.92203C48.3073 1.75929 48.1094 1.68472 47.5336 1.56089C47.2747 1.50524 44.6683 1.47664 44.1407 1.52367Z" fill="white"/>
<path d="M81.8022 1.5H73.8022C71.5931 1.5 69.8022 3.29086 69.8022 5.5V13.5C69.8022 15.7091 71.5931 17.5 73.8022 17.5H81.8022C84.0114 17.5 85.8022 15.7091 85.8022 13.5V5.5C85.8022 3.29086 84.0114 1.5 81.8022 1.5Z" stroke="white" stroke-width="2" stroke-linecap="round" stroke-linejoin="round"/>
<path d="M77.8022 12.5C79.4591 12.5 80.8022 11.1569 80.8022 9.5C80.8022 7.84315 79.4591 6.5 77.8022 6.5C76.1454 6.5 74.8022 7.84315 74.8022 9.5C74.8022 11.1569 76.1454 12.5 77.8022 12.5Z" stroke="white" stroke-width="2" stroke-linecap="round" stroke-linejoin="round"/>
<path d="M82.3022 5V5.001" stroke="white" stroke-width="2" stroke-linecap="round" stroke-linejoin="round"/>
</svg>
